# xmcd
#
# Track frame offsets: 
#        150
#        24230
#        45847
#        60470
#        75207
#        95678
#        115265
#        131417
#        153325
#        171763
#
# Disc length: 2427 seconds
#
# Revision: 0
# Processed by: cddbd v1.5.2PL0 Copyright (c) Steve Scherf et al.
# Submitted via: ExactAudioCopy v0.99pb4
#
DISCID=6709790a
DTITLE=Vince Gill - These Days [CD4]
DYEAR=2006
DGENRE=Country
TTITLE0=All Prayed Up
TTITLE1=Cold Gray Light Of Gone
TTITLE2=A River Like You
TTITLE3=Ace Up Your Pretty Sleeve
TTITLE4=Molly Brown
TTITLE5=Girl
TTITLE6=Give Me The Highway
TTITLE7=Sweet Augusta Darlin'
TTITLE8=Little Brother
TTITLE9=Almost Home
EXTD=
EXTT0=
EXTT1=
EXTT2=
EXTT3=
EXTT4=
EXTT5=
EXTT6=
EXTT7=
EXTT8=
EXTT9=
PLAYORDER=
